<?xml version="1.0" standalone="no"?>
<!DOCTYPE svg PUBLIC "-//W3C//DTD SVG 20010904//EN"
 "http://www.w3.org/TR/2001/REC-SVG-20010904/DTD/svg10.dtd">
<svg version="1.0" xmlns="http://www.w3.org/2000/svg"
 width="136.000000pt" height="136.000000pt" viewBox="0 0 136.000000 136.000000"
 preserveAspectRatio="xMidYMid meet">
<metadata>
Created by potrace 1.14, written by Peter Selinger 2001-2017
</metadata>
<g transform="translate(0.000000,136.000000) scale(0.100000,-0.100000)"
fill="#000000" stroke="none">
<path d="M359 1251 c-49 -16 -68 -31 -80 -66 -8 -21 -18 -34 -26 -31 -7 3 -15
1 -18 -4 -3 -5 3 -11 13 -14 10 -4 19 -17 20 -32 2 -21 -1 -25 -16 -19 -53 22
-112 24 -112 3 0 -5 12 -7 30 -3 51 11 96 -19 119 -78 l19 -52 -27 -11 c-33
-14 -81 -62 -93 -94 -13 -35 -12 -108 2 -125 7 -8 10 -15 6 -15 -3 0 3 -9 14
-20 12 -12 18 -26 14 -32 -4 -7 -3 -8 4 -4 14 8 55 -18 45 -28 -4 -4 1 -4 12
0 14 6 17 4 12 -9 -3 -9 -2 -19 3 -22 6 -4 10 -14 10 -24 0 -10 7 -24 15 -31
8 -7 12 -16 9 -21 -3 -5 -1 -9 5 -9 5 0 11 -26 14 -57 4 -54 30 -160 42 -171
15 -15 14 12 -1 59 -10 29 -18 71 -18 93 -1 23 -5 45 -11 49 -5 5 1 5 15 1 14
-4 30 -7 37 -7 7 0 12 -22 13 -56 3 -118 7 -155 17 -158 7 -3 9 29 6 94 l-5
98 25 -35 c14 -19 22 -39 19 -44 -3 -5 0 -6 5 -3 14 9 25 -18 28 -64 1 -19 7
-44 13 -55 5 -10 13 -40 17 -66 4 -29 12 -48 20 -48 13 0 14 10 2 40 -19 52
-27 88 -27 124 1 39 1 40 16 21 8 -11 19 -19 23 -18 4 1 8 -15 9 -35 1 -30 7
-115 11 -154 1 -5 5 -8 10 -8 5 0 7 42 5 92 -3 55 -1 85 4 74 5 -12 11 -16 15
-9 9 14 47 5 47 -11 0 -6 5 -4 10 4 7 11 10 11 10 2 0 -8 5 -10 12 -6 8 5 9 1
5 -12 -6 -16 -5 -17 6 -4 14 17 37 24 37 12 0 -4 -5 -13 -12 -20 -7 -7 -9 -12
-6 -12 4 0 14 7 22 16 9 8 16 11 16 5 0 -6 4 -11 10 -11 5 0 8 6 6 13 -1 6 -1
9 1 4 3 -4 10 -4 15 -1 7 4 8 2 4 -4 -4 -7 -2 -12 3 -12 6 0 11 4 11 9 0 18
30 20 47 3 16 -16 16 -16 10 2 -5 13 -3 17 6 13 8 -3 20 -1 28 5 11 8 11 9 -3
5 -36 -12 -25 7 16 27 25 12 54 34 66 49 12 16 24 26 27 23 3 -3 14 3 24 13
18 17 18 20 4 47 -8 16 -15 42 -15 57 0 58 -102 207 -142 207 -9 0 -9 3 2 9 8
6 18 7 22 5 4 -3 8 -1 8 4 0 5 18 17 40 27 22 10 45 24 51 31 6 7 18 10 26 7
12 -5 14 -3 8 7 -6 10 -4 12 8 7 9 -3 16 -3 15 1 -4 11 35 52 44 46 4 -3 8 3
8 12 0 10 3 14 7 11 3 -4 13 2 20 13 8 11 18 18 23 15 4 -3 7 1 7 8 -1 6 7 28
16 47 35 69 -11 118 -132 141 -134 25 -240 11 -337 -46 l-42 -25 -12 38 c-22
66 -96 148 -164 182 -47 22 -129 33 -167 21z"/>
<path d="M1159 833 c-13 -16 -12 -17 4 -4 9 7 17 15 17 17 0 8 -8 3 -21 -13z"/>
<path d="M976 722 c-3 -5 1 -9 9 -9 8 0 12 4 9 9 -3 4 -7 8 -9 8 -2 0 -6 -4
-9 -8z"/>
<path d="M950 280 c0 -5 5 -10 11 -10 5 0 7 5 4 10 -3 6 -8 10 -11 10 -2 0 -4
-4 -4 -10z"/>
<path d="M855 240 c-3 -5 -1 -10 4 -10 6 0 11 5 11 10 0 6 -2 10 -4 10 -3 0
-8 -4 -11 -10z"/>
</g>
</svg>
